# xmcd
#
# Track frame offsets:
#	150
#	9537
#	21340
#	31192
#	42607
#	53900
#	66490
#	80455
#	89940
#	104367
#	114247
#	124857
#	136797
#	148800
#	159037
#	170290
#	183205
#	197992
#	212270
#	222735
#	234400
#	244522
#
# Disc length: 3416 seconds
#
# Revision: 2
# Processed by: cddbd v1.5.2PL0 Copyright (c) Steve Scherf et al.
# Submitted via: audiograbber 1.83.01
#
DISCID=370d5616
DTITLE=Various Artist - Shout Bamalama
DYEAR=1999
DGENRE=R&B
TTITLE0=Otis Redding and The Pinetoppers - Fat Girl
TTITLE1=James Brown - I Loves You Porgy
TTITLE2=Guitar Crusher - Itch With Me
TTITLE3=The Kool Gents - Come To Me
TTITLE4=Guitar  Crusher - I Feel The Pain
TTITLE5=Julius Cobb - Oh Baby, I Want You Back Home
TTITLE6=James Brown - A Man Has To Go Back To The Crossroads
TTITLE7=Otis Redding and The Pinetoppers - Shout Bamalama
TTITLE8=James Brown - Yours And Mine
TTITLE9=Julius Cobb - The Wind, The Sun And Me
TTITLE10=Guitar Crusher - The Monkey
TTITLE11=Mickey Farrell and The Dynamics - Wong Foo
TTITLE12=The Whammies - Walk Walk
TTITLE13=The Five Fabulous Demons - Yeah, Since You Went Away
TTITLE14=Guitar Crusher - I Once Loved You Baby
TTITLE15=The Whammies - Double Whammy
TTITLE16=Billy Hamlin - If You Ain't Got No Bread
TTITLE17=James Brown - The Drunk
TTITLE18=Billy Hamlin - Hard Working Man
TTITLE19=The Five Fabulous Demons - You'd Better Come Home
TTITLE20=Mickey Farrell and The Dynamics - Baby Mine
TTITLE21=The Kool Gents - Oh Gee
EXTD=
EXTT0=
EXTT1=
EXTT2=
EXTT3=
EXTT4=
EXTT5=
EXTT6=
EXTT7=
EXTT8=
EXTT9=
EXTT10=
EXTT11=
EXTT12=
EXTT13=
EXTT14=
EXTT15=
EXTT16=
EXTT17=
EXTT18=
EXTT19=
EXTT20=
EXTT21=
PLAYORDER=
